<svg fill="none" height="100%" width="100%" viewBox="0 0 1080 1080" xmlns:xlink="http://www.w3.org/1999/xlink" xmlns="http://www.w3.org/2000/svg"><g transform="matrix(1.196,0,0,1.196,515,95.093)" id="i0"><g id="i1" transform="matrix(1,0,0,1,22.594,673.222)"><ellipse ry="488.034" rx="488.034" cy="0" cx="0" fill="#ebf5ff" /></g></g><g transform="matrix(1.21,0,0,1.21,540,440)" id="i2"><g visibility="hidden" id="i3"><animate repeatCount="indefinite" begin="0s" calcMode="discrete" dur="3s" values="hidden; visible; hidden; hidden" keyTimes="0; 0.253; 0.787; 1" attributeName="visibility" /><g transform="translate(-36,405.5)"><animateMotion repeatCount="indefinite" dur="3s" begin="0s" calcMode="spline" keyTimes="0; 0.253333; 0.52; 0.773333; 1" keySplines="0 0 1 1; 0 0 1 1; 0 0 1 1; 0 0 1 1" keyPoints="0; 0; 0.439; 1; 1" path="M0 0 C-163 3.667 -207.846 210.944 -372 154 C-637.768 61.806 -581.167 -211.833 -623 -285" fill="freeze" /><g transform="scale(0,0)"><animateTransform repeatCount="indefinite" type="scale" attributeName="transform" dur="3s" begin="0s" calcMode="spline" values="0 0; 0 0; 1 1; 1 1" keyTimes="0; 0.253333; 0.386667; 1" keySplines="0 0 1 1; 0.333 0 0.667 1; 0 0 1 1" fill="freeze" /><g transform="translate(2,-537.5)"><g id="i1" transform="matrix(1,0,0,1,-2,537.5)"><ellipse ry="108" rx="108" cy="0" cx="0" fill="#ffffff" /></g></g></g></g></g></g><g transform="matrix(1.21,0,0,1.21,540,440)" id="i2"><g visibility="hidden" id="i4"><animate repeatCount="indefinite" begin="0s" calcMode="discrete" dur="3s" values="hidden; visible; hidden; hidden" keyTimes="0; 0.253; 0.787; 1" attributeName="visibility" /><g transform="translate(-16,289.5)"><animateMotion repeatCount="indefinite" dur="3s" begin="0s" calcMode="spline" keyTimes="0; 0.253333; 0.52; 0.773333; 1" keySplines="0 0 1 1; 0 0 1 1; 0 0 1 1; 0 0 1 1" keyPoints="0; 0; 0.318; 1; 1" path="M0 0 C17 165.667 3.57 209.927 -22 266 C-92.167 419.875 -479.5 250.167 -571 247" fill="freeze" /><g transform="scale(0,0)"><animateTransform repeatCount="indefinite" type="scale" attributeName="transform" dur="3s" begin="0s" calcMode="spline" values="0 0; 0 0; 1 1; 1 1" keyTimes="0; 0.253333; 0.386667; 1" keySplines="0 0 1 1; 0.333 0 0.667 1; 0 0 1 1" fill="freeze" /><g transform="translate(2,-537.5)"><g id="i1" transform="matrix(1,0,0,1,-2,537.5)"><ellipse ry="108" rx="108" cy="0" cx="0" fill="#ffffff" /></g></g></g></g></g></g><g transform="matrix(1.21,0,0,1.21,540,440)" id="i2"><g visibility="hidden" id="i5"><animate repeatCount="indefinite" begin="0s" calcMode="discrete" dur="3s" values="hidden; visible; hidden; hidden" keyTimes="0; 0.307; 0.84; 1" attributeName="visibility" /><g transform="translate(-36,405.5)"><animateMotion repeatCount="indefinite" dur="3s" begin="0s" calcMode="spline" keyTimes="0; 0.306667; 0.573334; 0.826667; 1" keySplines="0 0 1 1; 0 0 1 1; 0 0 1 1; 0 0 1 1" keyPoints="0; 0; 0.439; 1; 1" path="M0 0 C-163 3.667 -207.846 210.944 -372 154 C-637.768 61.806 -581.167 -211.833 -623 -285" fill="freeze" /><g transform="scale(0,0)"><animateTransform repeatCount="indefinite" type="scale" attributeName="transform" dur="3s" begin="0s" calcMode="spline" values="0 0; 0 0; 1 1; 0.67 0.67; 0.67 0.67" keyTimes="0; 0.306667; 0.44; 0.613333; 1" keySplines="0 0 1 1; 0.333 0 0.667 1; 0.333 0 0.833 1; 0 0 1 1" fill="freeze" /><g transform="translate(2,-537.5)"><g id="i1" transform="matrix(1,0,0,1,-2,537.5)"><ellipse ry="108" rx="108" cy="0" cx="0" fill="#ffffff" /></g></g></g></g></g></g><g transform="matrix(1.21,0,0,1.21,540,440)" id="i2"><g visibility="hidden" id="i6"><animate repeatCount="indefinite" begin="0s" calcMode="discrete" dur="3s" values="hidden; visible; hidden; hidden" keyTimes="0; 0.253; 0.787; 1" attributeName="visibility" /><g transform="translate(-32,205.5)"><animateMotion repeatCount="indefinite" dur="3s" begin="0s" calcMode="spline" keyTimes="0; 0.253333; 0.52; 0.773333; 1" keySplines="0 0 1 1; 0 0 1 1; 0 0 1 1; 0 0 1 1" keyPoints="0; 0; 0.61; 1; 1" path="M0 0 C-7 219.667 -202.732 366.932 -376 354 C-619.768 335.806 -555.167 149.833 -591 109" fill="freeze" /><g transform="scale(0,0)"><animateTransform repeatCount="indefinite" type="scale" attributeName="transform" dur="3s" begin="0s" calcMode="spline" values="0 0; 0 0; 0.5 0.5; 0.67 0.67; 0.67 0.67" keyTimes="0; 0.253333; 0.386667; 0.773333; 1" keySplines="0 0 1 1; 0.333 0 0.667 1; 0.333 0 0.833 1; 0 0 1 1" fill="freeze" /><g transform="translate(2,-537.5)"><g id="i1" transform="matrix(1,0,0,1,-2,537.5)"><ellipse ry="108" rx="108" cy="0" cx="0" fill="#ffffff" /></g></g></g></g></g></g><g transform="matrix(1.21,0,0,1.21,540,440)" id="i2"><g visibility="hidden" id="i7"><animate repeatCount="indefinite" begin="0s" calcMode="discrete" dur="3s" values="hidden; visible; hidden; hidden" keyTimes="0; 0.307; 0.84; 1" attributeName="visibility" /><g transform="translate(-36,405.5)"><animateMotion repeatCount="indefinite" dur="3s" begin="0s" calcMode="spline" keyTimes="0; 0.306667; 0.573334; 0.826667; 1" keySplines="0 0 1 1; 0 0 1 1; 0 0 1 1; 0 0 1 1" keyPoints="0; 0; 0.425; 1; 1" path="M0 0 C149 21.667 222.253 154.975 396 156 C702.232 157.806 679.167 -147.833 695 -259" fill="freeze" /><g transform="scale(0,0)"><animateTransform repeatCount="indefinite" type="scale" attributeName="transform" dur="3s" begin="0s" calcMode="spline" values="0 0; 0 0; 1 1; 0.67 0.67; 0.67 0.67" keyTimes="0; 0.306667; 0.44; 0.613333; 1" keySplines="0 0 1 1; 0.333 0 0.667 1; 0.333 0 0.833 1; 0 0 1 1" fill="freeze" /><g transform="translate(2,-537.5)"><g id="i1" transform="matrix(1,0,0,1,-2,537.5)"><ellipse ry="108" rx="108" cy="0" cx="0" fill="#ffffff" /></g></g></g></g></g></g><g transform="matrix(1.21,0,0,1.21,540,440)" id="i2"><g visibility="hidden" id="i8"><animate repeatCount="indefinite" begin="0s" calcMode="discrete" dur="3s" values="hidden; visible; hidden; hidden" keyTimes="0; 0.253; 0.787; 1" attributeName="visibility" /><g transform="translate(-32,205.5)"><animateMotion repeatCount="indefinite" dur="3s" begin="0s" calcMode="spline" keyTimes="0; 0.253333; 0.52; 0.773333; 1" keySplines="0 0 1 1; 0 0 1 1; 0 0 1 1; 0 0 1 1" keyPoints="0; 0; 0.422; 1; 1" path="M0 0 C5 103.667 76.099 272.993 178 308 C360.033 370.535 590.892 315.248 609 165" fill="freeze" /><g transform="scale(0,0)"><animateTransform repeatCount="indefinite" type="scale" attributeName="transform" dur="3s" begin="0s" calcMode="spline" values="0 0; 0 0; 0.5 0.5; 0.67 0.67; 0.67 0.67" keyTimes="0; 0.253333; 0.386667; 0.773333; 1" keySplines="0 0 1 1; 0.333 0 0.667 1; 0.333 0 0.833 1; 0 0 1 1" fill="freeze" /><g transform="translate(2,-537.5)"><g id="i1" transform="matrix(1,0,0,1,-2,537.5)"><ellipse ry="108" rx="108" cy="0" cx="0" fill="#ffffff" /></g></g></g></g></g></g><g transform="matrix(1.21,0,0,1.21,540,440)" id="i2"><g visibility="hidden" id="i9"><animate repeatCount="indefinite" begin="0s" calcMode="discrete" dur="3s" values="hidden; visible; hidden; hidden" keyTimes="0; 0.307; 0.84; 1" attributeName="visibility" /><g transform="translate(-14,63.5)"><animateTransform repeatCount="indefinite" type="translate" attributeName="transform" dur="3s" begin="0s" calcMode="spline" values="-14 63.5; -14 63.5; 194 567.5; 549 592.5; 549 592.5" keyTimes="0; 0.306667; 0.573334; 0.826667; 1" keySplines="0 0 1 1; 0 0 1 1; 0 0 1 1; 0 0 1 1" fill="freeze" /><g transform="scale(0,0)"><animateTransform repeatCount="indefinite" type="scale" attributeName="transform" dur="3s" begin="0s" calcMode="spline" values="0 0; 0 0; 0.5 0.5; 0.67 0.67; 0.67 0.67" keyTimes="0; 0.306667; 0.44; 0.613333; 1" keySplines="0 0 1 1; 0.333 0 0.667 1; 0.333 0 0.833 1; 0 0 1 1" fill="freeze" /><g transform="translate(2,-537.5)"><g id="i1" transform="matrix(1,0,0,1,-2,537.5)"><ellipse ry="108" rx="108" cy="0" cx="0" fill="#ffffff" /></g></g></g></g></g></g><g transform="matrix(1.21,0,0,1.21,540,440)" id="i2"><g visibility="hidden" id="i10"><animate repeatCount="indefinite" begin="0s" calcMode="discrete" dur="3s" values="hidden; visible; hidden; hidden" keyTimes="0; 0.253; 0.787; 1" attributeName="visibility" /><g transform="translate(-36,405.5)"><animateMotion repeatCount="indefinite" dur="3s" begin="0s" calcMode="spline" keyTimes="0; 0.253333; 0.52; 0.773333; 1" keySplines="0 0 1 1; 0 0 1 1; 0 0 1 1; 0 0 1 1" keyPoints="0; 0; 0.393; 1; 1" path="M0 0 C141 1.667 238.607 231.091 402 172 C712.232 59.806 700.833 -203.167 655 -403" fill="freeze" /><g transform="scale(0,0)"><animateTransform repeatCount="indefinite" type="scale" attributeName="transform" dur="3s" begin="0s" calcMode="spline" values="0 0; 0 0; 1 1; 1 1" keyTimes="0; 0.253333; 0.386667; 1" keySplines="0 0 1 1; 0.333 0 0.667 1; 0 0 1 1" fill="freeze" /><g transform="translate(2,-537.5)"><g id="i1" transform="matrix(1,0,0,1,-2,537.5)"><ellipse ry="108" rx="108" cy="0" cx="0" fill="#ffffff" /></g></g></g></g></g></g><g transform="matrix(1.21,0,0,1.21,540,440)" id="i2"><g visibility="hidden" id="i11"><animate repeatCount="indefinite" begin="0s" calcMode="discrete" dur="3s" values="hidden; visible; hidden; hidden" keyTimes="0; 0.387; 0.92; 1" attributeName="visibility" /><g transform="translate(-16,289.5)"><animateMotion repeatCount="indefinite" dur="3s" begin="0s" calcMode="spline" keyTimes="0; 0.386667; 0.653334; 0.906667; 1" keySplines="0 0 1 1; 0 0 1 1; 0 0 1 1; 0 0 1 1" keyPoints="0; 0; 0.318; 1; 1" path="M0 0 C17 165.667 3.57 209.927 -22 266 C-92.167 419.875 -479.5 250.167 -571 247" fill="freeze" /><g transform="scale(0,0)"><animateTransform repeatCount="indefinite" type="scale" attributeName="transform" dur="3s" begin="0s" calcMode="spline" values="0 0; 0 0; 1 1; 1 1" keyTimes="0; 0.386667; 0.52; 1" keySplines="0 0 1 1; 0.333 0 0.667 1; 0 0 1 1" fill="freeze" /><g transform="translate(2,-537.5)"><g id="i1" transform="matrix(1,0,0,1,-2,537.5)"><ellipse ry="108" rx="108" cy="0" cx="0" fill="#ffffff" /></g></g></g></g></g></g><g transform="matrix(1.21,0,0,1.21,540,440)" id="i2"><g visibility="hidden" id="i12"><animate repeatCount="indefinite" begin="0s" calcMode="discrete" dur="3s" values="hidden; visible; visible" keyTimes="0; 0.48; 1" attributeName="visibility" /><g transform="translate(-16,289.5)"><animateMotion repeatCount="indefinite" dur="3s" begin="0s" calcMode="spline" keyTimes="0; 0.48; 0.746667; 1" keySplines="0 0 1 1; 0 0 1 1; 0 0 1 1" keyPoints="0; 0; 0.318; 1" path="M0 0 C17 165.667 3.57 209.927 -22 266 C-92.167 419.875 -479.5 250.167 -571 247" fill="freeze" /><g transform="scale(0,0)"><animateTransform repeatCount="indefinite" type="scale" attributeName="transform" dur="3s" begin="0s" calcMode="spline" values="0 0; 0 0; 1 1; 1 1" keyTimes="0; 0.48; 0.613333; 1" keySplines="0 0 1 1; 0.333 0 0.667 1; 0 0 1 1" fill="freeze" /><g transform="translate(2,-537.5)"><g id="i1" transform="matrix(1,0,0,1,-2,537.5)"><ellipse ry="108" rx="108" cy="0" cx="0" fill="#ffffff" /></g></g></g></g></g></g><g transform="matrix(1.21,0,0,1.21,540,440)" id="i2"><g visibility="hidden" id="i13"><animate repeatCount="indefinite" begin="0s" calcMode="discrete" dur="3s" values="hidden; visible; hidden; hidden" keyTimes="0; 0.32; 0.853; 1" attributeName="visibility" /><g transform="translate(6,191.5)"><animateMotion repeatCount="indefinite" dur="3s" begin="0s" calcMode="spline" keyTimes="0; 0.32; 0.466667; 0.586667; 0.84; 1" keySplines="0 0 1 1; 0 0 1 1; 0 0 1 1; 0 0 1 1; 0 0 1 1" keyPoints="0; 0; 0.243; 0.533; 1; 1" path="M0 0 C-5.093 89.221 26.054 200.149 -47.722 293.807 C-96.055 355.165 -232.738 426.72 -382 396 C-657.53 339.292 -617.833 6.833 -665 -71" fill="freeze" /><g transform="scale(0,0)"><animateTransform repeatCount="indefinite" type="scale" attributeName="transform" dur="3s" begin="0s" calcMode="spline" values="0 0; 0 0; 1 1; 1 1" keyTimes="0; 0.32; 0.453333; 1" keySplines="0 0 1 1; 0.333 0 0.667 1; 0 0 1 1" fill="freeze" /><g transform="translate(2,-537.5)"><g id="i1" transform="matrix(1,0,0,1,-2,537.5)"><ellipse ry="108" rx="108" cy="0" cx="0" fill="#ffffff" /></g></g></g></g></g></g><g transform="matrix(1.21,0,0,1.21,540,440)" id="i2"><g visibility="hidden" id="i14"><animate repeatCount="indefinite" begin="0s" calcMode="discrete" dur="3s" values="hidden; visible; hidden; hidden" keyTimes="0; 0.453; 0.987; 1" attributeName="visibility" /><g transform="translate(-36,405.5)"><animateMotion repeatCount="indefinite" dur="3s" begin="0s" calcMode="spline" keyTimes="0; 0.453333; 0.72; 0.973333; 1" keySplines="0 0 1 1; 0 0 1 1; 0 0 1 1; 0 0 1 1" keyPoints="0; 0; 0.439; 1; 1" path="M0 0 C-163 3.667 -207.846 210.944 -372 154 C-637.768 61.806 -581.167 -211.833 -623 -285" fill="freeze" /><g transform="scale(0,0)"><animateTransform repeatCount="indefinite" type="scale" attributeName="transform" dur="3s" begin="0s" calcMode="spline" values="0 0; 0 0; 1 1; 0.67 0.67; 0.67 0.67" keyTimes="0; 0.453333; 0.586667; 0.76; 1" keySplines="0 0 1 1; 0.333 0 0.667 1; 0.333 0 0.833 1; 0 0 1 1" fill="freeze" /><g transform="translate(2,-537.5)"><g id="i1" transform="matrix(1,0,0,1,-2,537.5)"><ellipse ry="108" rx="108" cy="0" cx="0" fill="#ffffff" /></g></g></g></g></g></g><g transform="matrix(1.21,0,0,1.21,540,440)" id="i2"><g visibility="hidden" id="i15"><animate repeatCount="indefinite" begin="0s" calcMode="discrete" dur="3s" values="hidden; visible; hidden; hidden" keyTimes="0; 0.347; 0.88; 1" attributeName="visibility" /><g transform="translate(-32,205.5)"><animateMotion repeatCount="indefinite" dur="3s" begin="0s" calcMode="spline" keyTimes="0; 0.346667; 0.613334; 0.866667; 1" keySplines="0 0 1 1; 0 0 1 1; 0 0 1 1; 0 0 1 1" keyPoints="0; 0; 0.61; 1; 1" path="M0 0 C-7 219.667 -202.732 366.932 -376 354 C-619.768 335.806 -555.167 149.833 -591 109" fill="freeze" /><g transform="scale(0,0)"><animateTransform repeatCount="indefinite" type="scale" attributeName="transform" dur="3s" begin="0s" calcMode="spline" values="0 0; 0 0; 0.5 0.5; 0.67 0.67; 0.67 0.67" keyTimes="0; 0.346667; 0.48; 0.866667; 1" keySplines="0 0 1 1; 0.333 0 0.667 1; 0.333 0 0.833 1; 0 0 1 1" fill="freeze" /><g transform="translate(2,-537.5)"><g id="i1" transform="matrix(1,0,0,1,-2,537.5)"><ellipse ry="108" rx="108" cy="0" cx="0" fill="#ffffff" /></g></g></g></g></g></g><g transform="matrix(1.21,0,0,1.21,540,440)" id="i2"><g visibility="hidden" id="i16"><animate repeatCount="indefinite" begin="0s" calcMode="discrete" dur="3s" values="hidden; visible; hidden; hidden" keyTimes="0; 0.4; 0.933; 1" attributeName="visibility" /><g transform="translate(2,77.5)"><animateMotion repeatCount="indefinite" dur="3s" begin="0s" calcMode="spline" keyTimes="0; 0.4; 0.533333; 0.666667; 1" keySplines="0 0 1 1; 0 0 1 1; 0 0 1 1; 0 0 1 1" keyPoints="0; 0; 0.471; 1; 1" path="M0 0 C-10.755 107.393 12.836 185.955 15.804 333.475 C18.311 458.064 161.497 587.455 254 588" fill="freeze" /><g transform="scale(0,0)"><animateTransform repeatCount="indefinite" type="scale" attributeName="transform" dur="3s" begin="0s" calcMode="spline" values="0 0; 0 0; 0.5 0.5; 0.67 0.67; 0.67 0.67" keyTimes="0; 0.4; 0.533333; 0.706667; 1" keySplines="0 0 1 1; 0.333 0 0.667 1; 0.333 0 0.833 1; 0 0 1 1" fill="freeze" /><g transform="translate(2,-537.5)"><g id="i1" transform="matrix(1,0,0,1,-2,537.5)"><ellipse ry="108" rx="108" cy="0" cx="0" fill="#ffffff" /></g></g></g></g></g></g><g transform="matrix(1.21,0,0,1.21,540,440)" id="i2"><g visibility="hidden" id="i17"><animate repeatCount="indefinite" begin="0s" calcMode="discrete" dur="3s" values="hidden; visible; hidden; hidden" keyTimes="0; 0.347; 0.88; 1" attributeName="visibility" /><g transform="translate(-32,205.5)"><animateMotion repeatCount="indefinite" dur="3s" begin="0s" calcMode="spline" keyTimes="0; 0.346667; 0.613334; 0.866667; 1" keySplines="0 0 1 1; 0 0 1 1; 0 0 1 1; 0 0 1 1" keyPoints="0; 0; 0.422; 1; 1" path="M0 0 C5 103.667 76.099 272.993 178 308 C360.033 370.535 590.892 315.248 609 165" fill="freeze" /><g transform="scale(0,0)"><animateTransform repeatCount="indefinite" type="scale" attributeName="transform" dur="3s" begin="0s" calcMode="spline" values="0 0; 0 0; 0.99 0.99; 0.67 0.67; 0.67 0.67" keyTimes="0; 0.346667; 0.48; 0.866667; 1" keySplines="0 0 1 1; 0.333 0 0.667 1; 0.333 0 0.833 1; 0 0 1 1" fill="freeze" /><g transform="translate(2,-537.5)"><g id="i1" transform="matrix(1,0,0,1,-2,537.5)"><ellipse ry="108" rx="108" cy="0" cx="0" fill="#ffffff" /></g></g></g></g></g></g><g transform="matrix(1.21,0,0,1.21,540,440)" id="i2"><g visibility="hidden" id="i18"><animate repeatCount="indefinite" begin="0s" calcMode="discrete" dur="3s" values="hidden; visible; hidden; hidden" keyTimes="0; 0.4; 0.933; 1" attributeName="visibility" /><g transform="translate(-14,63.5)"><animateTransform repeatCount="indefinite" type="translate" attributeName="transform" dur="3s" begin="0s" calcMode="spline" values="-14 63.5; -14 63.5; 194 567.5; 549 592.5; 549 592.5" keyTimes="0; 0.4; 0.666667; 0.92; 1" keySplines="0 0 1 1; 0 0 1 1; 0 0 1 1; 0 0 1 1" fill="freeze" /><g transform="scale(0,0)"><animateTransform repeatCount="indefinite" type="scale" attributeName="transform" dur="3s" begin="0s" calcMode="spline" values="0 0; 0 0; 0.5 0.5; 0.67 0.67; 0.67 0.67" keyTimes="0; 0.4; 0.533333; 0.706667; 1" keySplines="0 0 1 1; 0.333 0 0.667 1; 0.333 0 0.833 1; 0 0 1 1" fill="freeze" /><g transform="translate(2,-537.5)"><g id="i1" transform="matrix(1,0,0,1,-2,537.5)"><ellipse ry="108" rx="108" cy="0" cx="0" fill="#ffffff" /></g></g></g></g></g></g><g transform="matrix(1.21,0,0,1.21,540,440)" id="i2"><g visibility="hidden" id="i19"><animate repeatCount="indefinite" begin="0s" calcMode="discrete" dur="3s" values="hidden; visible; hidden; hidden" keyTimes="0; 0.347; 0.88; 1" attributeName="visibility" /><g transform="translate(-36,405.5)"><animateMotion repeatCount="indefinite" dur="3s" begin="0s" calcMode="spline" keyTimes="0; 0.346667; 0.613334; 0.866667; 1" keySplines="0 0 1 1; 0 0 1 1; 0 0 1 1; 0 0 1 1" keyPoints="0; 0; 0.393; 1; 1" path="M0 0 C141 1.667 238.607 231.091 402 172 C712.232 59.806 700.833 -203.167 655 -403" fill="freeze" /><g transform="scale(0,0)"><animateTransform repeatCount="indefinite" type="scale" attributeName="transform" dur="3s" begin="0s" calcMode="spline" values="0 0; 0 0; 1 1; 1 1" keyTimes="0; 0.346667; 0.48; 1" keySplines="0 0 1 1; 0.333 0 0.667 1; 0 0 1 1" fill="freeze" /><g transform="translate(2,-537.5)"><g id="i1" transform="matrix(1,0,0,1,-2,537.5)"><ellipse ry="108" rx="108" cy="0" cx="0" fill="#ffffff" /></g></g></g></g></g></g><g transform="matrix(1.21,0,0,1.21,540,440)" id="i2"><g visibility="hidden" id="i20"><animate repeatCount="indefinite" begin="0s" calcMode="discrete" dur="3s" values="hidden; visible; visible" keyTimes="0; 0.467; 1" attributeName="visibility" /><g transform="translate(-36,405.5)"><animateMotion repeatCount="indefinite" dur="3s" begin="0s" calcMode="spline" keyTimes="0; 0.466667; 0.733334; 0.986667; 1" keySplines="0 0 1 1; 0 0 1 1; 0 0 1 1; 0 0 1 1" keyPoints="0; 0; 0.439; 1; 1" path="M0 0 C-163 3.667 -207.846 210.944 -372 154 C-637.768 61.806 -581.167 -211.833 -623 -285" fill="freeze" /><g transform="scale(0,0)"><animateTransform repeatCount="indefinite" type="scale" attributeName="transform" dur="3s" begin="0s" calcMode="spline" values="0 0; 0 0; 1 1; 1 1" keyTimes="0; 0.466667; 0.6; 1" keySplines="0 0 1 1; 0.333 0 0.667 1; 0 0 1 1" fill="freeze" /><g transform="translate(2,-537.5)"><g id="i1" transform="matrix(1,0,0,1,-2,537.5)"><ellipse ry="108" rx="108" cy="0" cx="0" fill="#ffffff" /></g></g></g></g></g></g><g transform="matrix(1.21,0,0,1.21,540,440)" id="i2"><g visibility="hidden" id="i21"><animate repeatCount="indefinite" begin="0s" calcMode="discrete" dur="3s" values="hidden; visible; visible" keyTimes="0; 0.52; 1" attributeName="visibility" /><g transform="translate(-36,405.5)"><animateMotion repeatCount="indefinite" dur="3s" begin="0s" calcMode="spline" keyTimes="0; 0.52; 0.786667; 1" keySplines="0 0 1 1; 0 0 1 1; 0 0 1 1" keyPoints="0; 0; 0.439; 1" path="M0 0 C-163 3.667 -207.846 210.944 -372 154 C-637.768 61.806 -581.167 -211.833 -623 -285" fill="freeze" /><g transform="scale(0,0)"><animateTransform repeatCount="indefinite" type="scale" attributeName="transform" dur="3s" begin="0s" calcMode="spline" values="0 0; 0 0; 1 1; 0.67 0.67; 0.67 0.67" keyTimes="0; 0.52; 0.653333; 0.826667; 1" keySplines="0 0 1 1; 0.333 0 0.667 1; 0.333 0 0.833 1; 0 0 1 1" fill="freeze" /><g transform="translate(2,-537.5)"><g id="i1" transform="matrix(1,0,0,1,-2,537.5)"><ellipse ry="108" rx="108" cy="0" cx="0" fill="#ffffff" /></g></g></g></g></g></g><g transform="matrix(1.21,0,0,1.21,540,440)" id="i2"><g visibility="hidden" id="i22"><animate repeatCount="indefinite" begin="0s" calcMode="discrete" dur="3s" values="hidden; visible; visible" keyTimes="0; 0.467; 1" attributeName="visibility" /><g transform="translate(-32,205.5)"><animateMotion repeatCount="indefinite" dur="3s" begin="0s" calcMode="spline" keyTimes="0; 0.466667; 0.733334; 0.986667; 1" keySplines="0 0 1 1; 0 0 1 1; 0 0 1 1; 0 0 1 1" keyPoints="0; 0; 0.61; 1; 1" path="M0 0 C-7 219.667 -202.732 366.932 -376 354 C-619.768 335.806 -555.167 149.833 -591 109" fill="freeze" /><g transform="scale(0,0)"><animateTransform repeatCount="indefinite" type="scale" attributeName="transform" dur="3s" begin="0s" calcMode="spline" values="0 0; 0 0; 0.5 0.5; 0.67 0.67; 0.67 0.67" keyTimes="0; 0.466667; 0.6; 0.986667; 1" keySplines="0 0 1 1; 0.333 0 0.667 1; 0.333 0 0.833 1; 0 0 1 1" fill="freeze" /><g transform="translate(2,-537.5)"><g id="i1" transform="matrix(1,0,0,1,-2,537.5)"><ellipse ry="108" rx="108" cy="0" cx="0" fill="#ffffff" /></g></g></g></g></g></g><g transform="matrix(1.21,0,0,1.21,540,440)" id="i2"><g visibility="hidden" id="i23"><animate repeatCount="indefinite" begin="0s" calcMode="discrete" dur="3s" values="hidden; visible; visible" keyTimes="0; 0.52; 1" attributeName="visibility" /><g transform="translate(-36,405.5)"><animateMotion repeatCount="indefinite" dur="3s" begin="0s" calcMode="spline" keyTimes="0; 0.52; 0.786667; 1" keySplines="0 0 1 1; 0 0 1 1; 0 0 1 1" keyPoints="0; 0; 0.425; 1" path="M0 0 C149 21.667 222.253 154.975 396 156 C702.232 157.806 679.167 -147.833 695 -259" fill="freeze" /><g transform="scale(0,0)"><animateTransform repeatCount="indefinite" type="scale" attributeName="transform" dur="3s" begin="0s" calcMode="spline" values="0 0; 0 0; 1 1; 0.67 0.67; 0.67 0.67" keyTimes="0; 0.52; 0.653333; 0.826667; 1" keySplines="0 0 1 1; 0.333 0 0.667 1; 0.333 0 0.833 1; 0 0 1 1" fill="freeze" /><g transform="translate(2,-537.5)"><g id="i1" transform="matrix(1,0,0,1,-2,537.5)"><ellipse ry="108" rx="108" cy="0" cx="0" fill="#ffffff" /></g></g></g></g></g></g><g transform="matrix(1.21,0,0,1.21,540,440)" id="i2"><g visibility="hidden" id="i24"><animate repeatCount="indefinite" begin="0s" calcMode="discrete" dur="3s" values="hidden; visible; visible" keyTimes="0; 0.467; 1" attributeName="visibility" /><g transform="translate(-32,205.5)"><animateMotion repeatCount="indefinite" dur="3s" begin="0s" calcMode="spline" keyTimes="0; 0.466667; 0.733334; 0.986667; 1" keySplines="0 0 1 1; 0 0 1 1; 0 0 1 1; 0 0 1 1" keyPoints="0; 0; 0.422; 1; 1" path="M0 0 C5 103.667 76.099 272.993 178 308 C360.033 370.535 590.892 315.248 609 165" fill="freeze" /><g transform="scale(0,0)"><animateTransform repeatCount="indefinite" type="scale" attributeName="transform" dur="3s" begin="0s" calcMode="spline" values="0 0; 0 0; 0.5 0.5; 0.67 0.67; 0.67 0.67" keyTimes="0; 0.466667; 0.6; 0.986667; 1" keySplines="0 0 1 1; 0.333 0 0.667 1; 0.333 0 0.833 1; 0 0 1 1" fill="freeze" /><g transform="translate(2,-537.5)"><g id="i1" transform="matrix(1,0,0,1,-2,537.5)"><ellipse ry="108" rx="108" cy="0" cx="0" fill="#ffffff" /></g></g></g></g></g></g><g transform="matrix(1.21,0,0,1.21,540,440)" id="i2"><g visibility="hidden" id="i25"><animate repeatCount="indefinite" begin="0s" calcMode="discrete" dur="3s" values="hidden; visible; visible" keyTimes="0; 0.52; 1" attributeName="visibility" /><g transform="translate(-14,63.5)"><animateTransform repeatCount="indefinite" type="translate" attributeName="transform" dur="3s" begin="0s" calcMode="spline" values="-14 63.5; -14 63.5; 194 567.5; 549 592.5" keyTimes="0; 0.52; 0.786667; 1" keySplines="0 0 1 1; 0 0 1 1; 0 0 1 1" fill="freeze" /><g transform="scale(0,0)"><animateTransform repeatCount="indefinite" type="scale" attributeName="transform" dur="3s" begin="0s" calcMode="spline" values="0 0; 0 0; 0.5 0.5; 0.67 0.67; 0.67 0.67" keyTimes="0; 0.52; 0.653333; 0.826667; 1" keySplines="0 0 1 1; 0.333 0 0.667 1; 0.333 0 0.833 1; 0 0 1 1" fill="freeze" /><g transform="translate(2,-537.5)"><g id="i1" transform="matrix(1,0,0,1,-2,537.5)"><ellipse ry="108" rx="108" cy="0" cx="0" fill="#ffffff" /></g></g></g></g></g></g><g transform="matrix(1.21,0,0,1.21,540,440)" id="i2"><g visibility="hidden" id="i26"><animate repeatCount="indefinite" begin="0s" calcMode="discrete" dur="3s" values="hidden; visible; visible" keyTimes="0; 0.467; 1" attributeName="visibility" /><g transform="translate(-36,405.5)"><animateMotion repeatCount="indefinite" dur="3s" begin="0s" calcMode="spline" keyTimes="0; 0.466667; 0.733334; 0.986667; 1" keySplines="0 0 1 1; 0 0 1 1; 0 0 1 1; 0 0 1 1" keyPoints="0; 0; 0.393; 1; 1" path="M0 0 C141 1.667 238.607 231.091 402 172 C712.232 59.806 700.833 -203.167 655 -403" fill="freeze" /><g transform="scale(0,0)"><animateTransform repeatCount="indefinite" type="scale" attributeName="transform" dur="3s" begin="0s" calcMode="spline" values="0 0; 0 0; 1 1; 1 1" keyTimes="0; 0.466667; 0.6; 1" keySplines="0 0 1 1; 0.333 0 0.667 1; 0 0 1 1" fill="freeze" /><g transform="translate(2,-537.5)"><g id="i1" transform="matrix(1,0,0,1,-2,537.5)"><ellipse ry="108" rx="108" cy="0" cx="0" fill="#ffffff" /></g></g></g></g></g></g><g transform="matrix(1.21,0,0,1.21,540,440)" id="i2"><g visibility="hidden" id="i27"><animate repeatCount="indefinite" begin="0s" calcMode="discrete" dur="3s" values="hidden; visible; visible" keyTimes="0; 0.547; 1" attributeName="visibility" /><g transform="translate(6,191.5)"><animateMotion repeatCount="indefinite" dur="3s" begin="0s" calcMode="spline" keyTimes="0; 0.546667; 0.693333; 0.813334; 1" keySplines="0 0 1 1; 0 0 1 1; 0 0 1 1; 0 0 1 1" keyPoints="0; 0; 0.249; 0.546; 1" path="M0 0 C-5.093 89.221 26.054 200.149 -47.722 293.807 C-96.055 355.165 -232.738 426.72 -382 396 C-657.53 339.292 -631.167 41.833 -681 -29" fill="freeze" /><g transform="scale(0,0)"><animateTransform repeatCount="indefinite" type="scale" attributeName="transform" dur="3s" begin="0s" calcMode="spline" values="0 0; 0 0; 1 1; 1 1" keyTimes="0; 0.546667; 0.68; 1" keySplines="0 0 1 1; 0.333 0 0.667 1; 0 0 1 1" fill="freeze" /><g transform="translate(2,-537.5)"><g id="i1" transform="matrix(1,0,0,1,-2,537.5)"><ellipse ry="108" rx="108" cy="0" cx="0" fill="#ffffff" /></g></g></g></g></g></g><g transform="matrix(1.21,0,0,1.21,540,440)" id="i2"><g visibility="hidden" id="i28"><animate repeatCount="indefinite" begin="0s" calcMode="discrete" dur="3s" values="hidden; visible; visible" keyTimes="0; 0.68; 1" attributeName="visibility" /><g transform="translate(-36,405.5)"><animateMotion repeatCount="indefinite" dur="3s" begin="0s" calcMode="spline" keyTimes="0; 0.68; 0.946667; 1" keySplines="0 0 1 1; 0 0 1 1; 0 0 1 1" keyPoints="0; 0; 0.459; 1" path="M0 0 C-163 3.667 -207.846 210.944 -372 154 C-637.768 61.806 -611.167 -158.5 -659 -221" fill="freeze" /><g transform="scale(0,0)"><animateTransform repeatCount="indefinite" type="scale" attributeName="transform" dur="3s" begin="0s" calcMode="spline" values="0 0; 0 0; 1 1; 0.67 0.67; 0.67 0.67" keyTimes="0; 0.68; 0.813333; 0.986667; 1" keySplines="0 0 1 1; 0.333 0 0.667 1; 0.333 0 0.833 1; 0 0 1 1" fill="freeze" /><g transform="translate(2,-537.5)"><g id="i1" transform="matrix(1,0,0,1,-2,537.5)"><ellipse ry="108" rx="108" cy="0" cx="0" fill="#ffffff" /></g></g></g></g></g></g><g transform="matrix(1.21,0,0,1.21,540,440)" id="i2"><g visibility="hidden" id="i29"><animate repeatCount="indefinite" begin="0s" calcMode="discrete" dur="3s" values="hidden; visible; visible" keyTimes="0; 0.573; 1" attributeName="visibility" /><g transform="translate(-32,205.5)"><animateMotion repeatCount="indefinite" dur="3s" begin="0s" calcMode="spline" keyTimes="0; 0.573333; 0.84; 1" keySplines="0 0 1 1; 0 0 1 1; 0 0 1 1" keyPoints="0; 0; 0.626; 1" path="M0 0 C-7 219.667 -202.732 366.932 -376 354 C-619.768 335.806 -615.167 223.167 -663 197" fill="freeze" /><g transform="scale(0,0)"><animateTransform repeatCount="indefinite" type="scale" attributeName="transform" dur="3s" begin="0s" calcMode="spline" values="0 0; 0 0; 0.5 0.5; 0.67 0.67" keyTimes="0; 0.573333; 0.706667; 1" keySplines="0 0 1 1; 0.333 0 0.667 1; 0.333 0 0.833 1" fill="freeze" /><g transform="translate(2,-537.5)"><g id="i1" transform="matrix(1,0,0,1,-2,537.5)"><ellipse ry="108" rx="108" cy="0" cx="0" fill="#ffffff" /></g></g></g></g></g></g><g transform="matrix(1.21,0,0,1.21,540,440)" id="i2"><g visibility="hidden" id="i30"><animate repeatCount="indefinite" begin="0s" calcMode="discrete" dur="3s" values="hidden; visible; visible" keyTimes="0; 0.627; 1" attributeName="visibility" /><g transform="translate(2,77.5)"><animateMotion repeatCount="indefinite" dur="3s" begin="0s" calcMode="spline" keyTimes="0; 0.626667; 0.76; 0.893333; 1" keySplines="0 0 1 1; 0 0 1 1; 0 0 1 1; 0 0 1 1" keyPoints="0; 0; 0.451; 1; 1" path="M0 0 C-10.755 107.393 12.836 185.955 15.804 333.475 C18.311 458.064 197.497 599.455 290 600" fill="freeze" /><g transform="scale(0,0)"><animateTransform repeatCount="indefinite" type="scale" attributeName="transform" dur="3s" begin="0s" calcMode="spline" values="0 0; 0 0; 0.5 0.5; 0.67 0.67; 0.67 0.67" keyTimes="0; 0.626667; 0.76; 0.933333; 1" keySplines="0 0 1 1; 0.333 0 0.667 1; 0.333 0 0.833 1; 0 0 1 1" fill="freeze" /><g transform="translate(2,-537.5)"><g id="i1" transform="matrix(1,0,0,1,-2,537.5)"><ellipse ry="108" rx="108" cy="0" cx="0" fill="#ffffff" /></g></g></g></g></g></g><g transform="matrix(1.21,0,0,1.21,540,440)" id="i2"><g visibility="hidden" id="i31"><animate repeatCount="indefinite" begin="0s" calcMode="discrete" dur="3s" values="hidden; visible; visible" keyTimes="0; 0.573; 1" attributeName="visibility" /><g transform="translate(-32,205.5)"><animateTransform repeatCount="indefinite" type="translate" attributeName="transform" dur="3s" begin="0s" calcMode="spline" values="-32 205.5; -32 205.5; 174 559.5; 719 478.5" keyTimes="0; 0.573333; 0.84; 1" keySplines="0 0 1 1; 0 0 1 1; 0 0 1 1" fill="freeze" /><g transform="scale(0,0)"><animateTransform repeatCount="indefinite" type="scale" attributeName="transform" dur="3s" begin="0s" calcMode="spline" values="0 0; 0 0; 0.99 0.99; 0.67 0.67" keyTimes="0; 0.573333; 0.706667; 1" keySplines="0 0 1 1; 0.333 0 0.667 1; 0.333 0 0.833 1" fill="freeze" /><g transform="translate(2,-537.5)"><g id="i1" transform="matrix(1,0,0,1,-2,537.5)"><ellipse ry="108" rx="108" cy="0" cx="0" fill="#ffffff" /></g></g></g></g></g></g><g transform="matrix(1.21,0,0,1.21,540,440)" id="i2"><g visibility="hidden" id="i32"><animate repeatCount="indefinite" begin="0s" calcMode="discrete" dur="3s" values="hidden; visible; visible" keyTimes="0; 0.627; 1" attributeName="visibility" /><g transform="translate(-14,63.5)"><animateTransform repeatCount="indefinite" type="translate" attributeName="transform" dur="3s" begin="0s" calcMode="spline" values="-14 63.5; -14 63.5; 194 567.5; 579 632.5" keyTimes="0; 0.626667; 0.893334; 1" keySplines="0 0 1 1; 0 0 1 1; 0 0 1 1" fill="freeze" /><g transform="scale(0,0)"><animateTransform repeatCount="indefinite" type="scale" attributeName="transform" dur="3s" begin="0s" calcMode="spline" values="0 0; 0 0; 0.5 0.5; 0.67 0.67; 0.67 0.67" keyTimes="0; 0.626667; 0.76; 0.933333; 1" keySplines="0 0 1 1; 0.333 0 0.667 1; 0.333 0 0.833 1; 0 0 1 1" fill="freeze" /><g transform="translate(2,-537.5)"><g id="i1" transform="matrix(1,0,0,1,-2,537.5)"><ellipse ry="108" rx="108" cy="0" cx="0" fill="#ffffff" /></g></g></g></g></g></g><g transform="matrix(1.21,0,0,1.21,540,440)" id="i2"><g visibility="hidden" id="i33"><animate repeatCount="indefinite" begin="0s" calcMode="discrete" dur="3s" values="hidden; visible; visible" keyTimes="0; 0.573; 1" attributeName="visibility" /><g transform="translate(-36,405.5)"><animateMotion repeatCount="indefinite" dur="3s" begin="0s" calcMode="spline" keyTimes="0; 0.573333; 0.84; 1" keySplines="0 0 1 1; 0 0 1 1; 0 0 1 1" keyPoints="0; 0; 0.443; 1" path="M0 0 C141 1.667 238.607 231.091 402 172 C712.232 59.806 690.833 0.833 779 -215" fill="freeze" /><g transform="scale(0,0)"><animateTransform repeatCount="indefinite" type="scale" attributeName="transform" dur="3s" begin="0s" calcMode="spline" values="0 0; 0 0; 1 1; 1 1" keyTimes="0; 0.573333; 0.706667; 1" keySplines="0 0 1 1; 0.333 0 0.667 1; 0 0 1 1" fill="freeze" /><g transform="translate(2,-537.5)"><g id="i1" transform="matrix(1,0,0,1,-2,537.5)"><ellipse ry="108" rx="108" cy="0" cx="0" fill="#ffffff" /></g></g></g></g></g></g><g transform="matrix(1.21,0,0,1.21,540,440)" opacity="0" id="i2" /><g id="i34"><g transform="translate(540,1629)"><animateTransform repeatCount="indefinite" type="translate" attributeName="transform" dur="3s" begin="0s" calcMode="spline" values="540 1629; 540 598; 540 597.941; 540 539.951; 540 700; 540 -214; 540 -214" keyTimes="0; 0.266667; 0.28; 0.56; 0.706667; 0.786667; 1" keySplines="0.65 0 0.35 1; 0.339 0 0.833 0.833; 0.167 0.167 0.667 1; 0.333 0 0.664 1; 0.65 0 0.35 1; 0 0 1 1" fill="freeze" /><g transform="scale(1,1) translate(0,0)"><g transform="matrix(4.16,0,0,4.16,-129.886,98.652)" id="i35"><g id="i36"><path fill="#961616" d="M5.599,-26.093C5.599,-26.093,-21.69,-12.879,-10.877,26.093C-10.877,26.093,-5.103,6.502,13.411,1.43C13.411,1.43,5.599,-26.093,5.599,-26.093Z" /></g></g></g></g></g><g id="i34"><g transform="translate(540,1629)"><animateTransform repeatCount="indefinite" type="translate" attributeName="transform" dur="3s" begin="0s" calcMode="spline" values="540 1629; 540 598; 540 597.941; 540 539.951; 540 700; 540 -214; 540 -214" keyTimes="0; 0.266667; 0.28; 0.56; 0.706667; 0.786667; 1" keySplines="0.65 0 0.35 1; 0.339 0 0.833 0.833; 0.167 0.167 0.667 1; 0.333 0 0.664 1; 0.65 0 0.35 1; 0 0 1 1" fill="freeze" /><g transform="scale(1,1) translate(0,0)"><g transform="matrix(4.16,0,0,4.16,129.454,98.652)" id="i37"><g id="i36"><path fill="#961616" d="M-5.599,-26.093C-5.599,-26.093,21.69,-12.879,10.877,26.093C10.877,26.093,5.103,6.502,-13.411,1.43C-13.411,1.43,-5.599,-26.093,-5.599,-26.093Z" /></g></g></g></g></g><g id="i34"><g transform="translate(540,1629)"><animateTransform repeatCount="indefinite" type="translate" attributeName="transform" dur="3s" begin="0s" calcMode="spline" values="540 1629; 540 598; 540 597.941; 540 539.951; 540 700; 540 -214; 540 -214" keyTimes="0; 0.266667; 0.28; 0.56; 0.706667; 0.786667; 1" keySplines="0.65 0 0.35 1; 0.339 0 0.833 0.833; 0.167 0.167 0.667 1; 0.333 0 0.664 1; 0.65 0 0.35 1; 0 0 1 1" fill="freeze" /><g transform="scale(1,1) translate(0,0)"><g transform="matrix(4.16,0,0,4.16,-1.957,122.552)" id="i38"><g id="i36"><path fill="#961616" d="M9.274,3.812C9.274,3.812,-9.274,3.812,-9.274,3.812C-10.006,3.812,-10.64,3.306,-10.802,2.592C-10.802,2.592,-11.82,-1.899,-11.82,-1.899C-12.042,-2.879,-11.297,-3.812,-10.292,-3.812C-10.292,-3.812,10.292,-3.812,10.292,-3.812C11.297,-3.812,12.042,-2.879,11.82,-1.899C11.82,-1.899,10.802,2.592,10.802,2.592C10.64,3.306,10.006,3.812,9.274,3.812Z" /></g></g></g></g></g><g id="i34"><g transform="translate(540,1629)"><animateTransform repeatCount="indefinite" type="translate" attributeName="transform" dur="3s" begin="0s" calcMode="spline" values="540 1629; 540 598; 540 597.941; 540 539.951; 540 700; 540 -214; 540 -214" keyTimes="0; 0.266667; 0.28; 0.56; 0.706667; 0.786667; 1" keySplines="0.65 0 0.35 1; 0.339 0 0.833 0.833; 0.167 0.167 0.667 1; 0.333 0 0.664 1; 0.65 0 0.35 1; 0 0 1 1" fill="freeze" /><g transform="scale(1,1) translate(0,0)"><g transform="matrix(4.16,0,0,4.16,-0.728,-84.535)" id="i39"><g id="i36"><path fill="#ffffff" d="M-27.063,7.415C-27.063,7.415,-24.215,33.554,-15.417,50.116C-15.417,50.116,-1.442,43.387,15.12,50.116C15.12,50.116,25.213,36.141,27.283,5.345C28.476,-12.4,27.051,-32.66,21.174,-50.116C21.174,-50.116,-19.873,-50.116,-19.873,-50.116C-25.337,-35.896,-29.227,-16.801,-27.063,7.415Z" /></g></g></g></g></g><g id="i34"><g transform="translate(540,1629)"><animateTransform repeatCount="indefinite" type="translate" attributeName="transform" dur="3s" begin="0s" calcMode="spline" values="540 1629; 540 598; 540 597.941; 540 539.951; 540 700; 540 -214; 540 -214" keyTimes="0; 0.266667; 0.28; 0.56; 0.706667; 0.786667; 1" keySplines="0.65 0 0.35 1; 0.339 0 0.833 0.833; 0.167 0.167 0.667 1; 0.333 0 0.664 1; 0.65 0 0.35 1; 0 0 1 1" fill="freeze" /><g transform="scale(1,1) translate(0,0)"><g transform="matrix(4.16,0,0,4.16,1.978,-355.433)" id="i40"><g id="i36"><path fill="#961616" d="M-3.826,-13.317C-7.955,-8.646,-15.034,0.716,-20.524,15.004C-20.524,15.004,20.524,15.004,20.524,15.004C16.763,3.834,11.182,-6.19,3.283,-13.663C1.25,-15.586,-1.972,-15.414,-3.826,-13.317Z" /></g></g></g></g></g><g id="i34"><g transform="translate(540,1629)"><animateTransform repeatCount="indefinite" type="translate" attributeName="transform" dur="3s" begin="0s" calcMode="spline" values="540 1629; 540 598; 540 597.941; 540 539.951; 540 700; 540 -214; 540 -214" keyTimes="0; 0.266667; 0.28; 0.56; 0.706667; 0.786667; 1" keySplines="0.65 0 0.35 1; 0.339 0 0.833 0.833; 0.167 0.167 0.667 1; 0.333 0 0.664 1; 0.65 0 0.35 1; 0 0 1 1" fill="freeze" /><g transform="scale(1,1) translate(0,0)"><g transform="matrix(4.16,0,0,4.16,-1.957,71.317)" id="i41"><g id="i36"><path fill="#961616" d="M-0.311,-31.312C-0.311,-31.312,-12.901,-2.704,-0.311,31.312C-0.311,31.312,13.68,2.929,-0.311,-31.312Z" /></g></g></g></g></g><g id="i34"><g transform="translate(540,1629)"><animateTransform repeatCount="indefinite" type="translate" attributeName="transform" dur="3s" begin="0s" calcMode="spline" values="540 1629; 540 598; 540 597.941; 540 539.951; 540 700; 540 -214; 540 -214" keyTimes="0; 0.266667; 0.28; 0.56; 0.706667; 0.786667; 1" keySplines="0.65 0 0.35 1; 0.339 0 0.833 0.833; 0.167 0.167 0.667 1; 0.333 0 0.664 1; 0.65 0 0.35 1; 0 0 1 1" fill="freeze" /><g transform="scale(1,1) translate(0,0)"><g transform="matrix(4.16,0,0,4.16,1.638,-169.378)" id="i42"><g id="i36"><path fill="#961616" d="M15.838,0C15.838,8.747,8.747,15.838,0,15.838C-8.747,15.838,-15.838,8.747,-15.838,0C-15.838,-8.747,-8.747,-15.838,0,-15.838C8.747,-15.838,15.838,-8.747,15.838,0Z" /></g></g></g></g></g><g id="i34"><g transform="translate(540,1629)"><animateTransform repeatCount="indefinite" type="translate" attributeName="transform" dur="3s" begin="0s" calcMode="spline" values="540 1629; 540 598; 540 597.941; 540 539.951; 540 700; 540 -214; 540 -214" keyTimes="0; 0.266667; 0.28; 0.56; 0.706667; 0.786667; 1" keySplines="0.65 0 0.35 1; 0.339 0 0.833 0.833; 0.167 0.167 0.667 1; 0.333 0 0.664 1; 0.65 0 0.35 1; 0 0 1 1" fill="freeze" /><g transform="scale(1,1) translate(0,0)"><g transform="matrix(4.16,0,0,4.16,1.638,-169.377)" id="i43"><g id="i36"><path fill="#73fdff" d="M10.995,0C10.995,6.072,6.072,10.995,0,10.995C-6.072,10.995,-10.995,6.072,-10.995,0C-10.995,-6.072,-6.072,-10.995,0,-10.995C6.072,-10.995,10.995,-6.072,10.995,0Z" /></g></g></g></g></g><g opacity="0" id="i34"><g transform="translate(540,1629)"><animateTransform repeatCount="indefinite" type="translate" attributeName="transform" dur="3s" begin="0s" calcMode="spline" values="540 1629; 540 598; 540 597.941; 540 539.951; 540 700; 540 -214; 540 -214" keyTimes="0; 0.266667; 0.28; 0.56; 0.706667; 0.786667; 1" keySplines="0.65 0 0.35 1; 0.339 0 0.833 0.833; 0.167 0.167 0.667 1; 0.333 0 0.664 1; 0.65 0 0.35 1; 0 0 1 1" fill="freeze" /><g transform="scale(1,1) translate(0,0)" /></g></g></svg>